<svg width="320" height="120" viewBox="0 0 320 120" fill="none" xmlns="http://www.w3.org/2000/svg">
<path d="M101.103 20C109.337 20.012 119.47 22.5546 126.338 27.0977C128.052 28.2311 131.423 30.6403 132.882 32.0244C136.031 35.0111 141.441 41.745 142.357 46.0645C154.019 42.3426 165.876 42.2373 177.524 46.0694C178.192 43.9858 179.159 42.0479 180.314 40.2129C193.306 19.555 222.647 14.2745 243.086 26.6446C251.481 31.7247 259.105 40.2779 261.391 49.9981C264.214 49.7093 267.292 49.9181 270.142 49.9082C271.497 49.9035 274.376 49.6807 275.357 50.752C276.057 51.5159 275.956 53.2872 275.931 54.292C275.915 54.8711 275.801 55.5063 275.336 55.9004C274.166 56.8953 264.675 56.7911 262.809 56.6084C264.75 73.3303 253.019 90.0801 237.803 96.2871C225.295 101.344 211.282 101.178 198.897 95.8262C196.737 94.6345 194.068 93.2118 192.066 91.8106C178.612 82.392 171.282 64.538 176.597 48.6299C174.779 48.3982 171.814 47.3807 169.577 47.0342C159.994 45.5491 152.62 46.1634 143.434 48.709C144.568 53.2878 145.218 54.9813 145.165 59.7744C145.023 70.3146 140.657 80.3562 133.046 87.6465C128.412 92.1536 122.181 95.7914 115.96 97.7383C93.163 104.873 66.6135 94.8952 58.9887 71.1113C57.2076 65.5552 57.0001 62.4161 57.1235 56.5801L56.9682 56.5899C55.0432 56.6955 45.7036 57.0597 44.6333 55.9434C43.935 55.2151 43.9975 53.5707 44.0043 52.6358C44.0101 51.8425 44.1014 51.1314 44.7319 50.5684C46.0399 49.4009 56.3008 49.9408 58.6108 49.9649C62.8432 32.4005 80.4806 21.5417 97.6743 20.1221C98.1491 20.0253 100.509 19.9991 101.103 20ZM226.223 21.4961C223.863 21.1392 218.84 20.6197 216.568 21.0059C211.216 21.4963 206.885 22.0259 201.724 24.0362C185.226 30.4619 174.71 44.8939 176.077 62.8223C177.761 84.8942 199.508 100.955 221.102 99.126C233.352 98.335 244.239 94.0188 252.46 84.6153C259.046 77.128 262.389 67.3289 261.75 57.376C260.366 38.223 244.582 24.2732 226.223 21.4961ZM143.897 56.0078C141.799 33.5779 120.576 20.2317 99.2719 21.0127C85.9856 22.13 75.5912 26.0108 66.7309 36.4512C60.5407 43.8289 57.5049 53.3494 58.2817 62.9502C59.6645 79.5886 72.1441 92.9358 87.9418 97.3809C92.6375 98.702 98.0137 99.3111 102.89 99.1856C115.431 98.0647 126.49 94.379 134.875 84.3965C141.582 76.5353 144.835 66.3 143.897 56.0078ZM215.325 22.2324C216.602 22.0265 218.996 22.1037 220.319 22.1367C229.533 22.319 238.455 25.4026 245.816 30.9492C253.611 36.8621 259.431 46.0495 260.431 55.7969C261.054 62.2318 260.138 69.7777 257.141 75.5811C252.091 85.3637 243.316 92.527 232.917 95.999C230.001 96.9727 226.041 97.5706 223.012 97.961C201.591 99.5896 180.547 86.7226 177.515 64.4014C174.297 40.7049 192.925 24.33 215.325 22.2324ZM97.6987 22.2276C98.833 22.0483 100.725 22.1324 101.949 22.1289C111.366 22.1012 121.345 25.4425 128.74 31.2432C136.226 37.1164 141.623 45.6832 142.659 55.2539C143.757 65.408 140.892 75.3666 134.255 83.25C126.614 92.2899 116.448 96.7089 104.936 97.9776C57.8323 101.062 40.3258 42.4422 85.9291 24.5869C89.4076 23.2249 93.9666 22.6311 97.6987 22.2276ZM241.038 28.7881C233.39 24.3115 225.344 22.3075 216.507 22.9336C204.963 23.6451 194.261 28.0968 186.47 36.8565C181.423 42.5305 178.132 50.591 178.014 58.1973C181.424 61.0427 184.157 69.3344 180.409 72.6885C184.285 82.2052 191.829 89.7596 201.338 93.6455C207.794 96.3055 212.945 97.4603 220.073 97.293C223.647 97.0353 226.744 96.8232 230.2 95.919C262.842 87.3765 271.383 46.554 241.038 28.7881ZM127.975 31.6416C120.29 25.5646 108.059 21.8854 98.2993 22.9639C86.9625 23.8587 76.3863 28.3193 68.81 37.044C62.3942 44.4327 59.576 53.7678 60.3588 63.4639C61.1695 73.5017 66.9272 82.0548 74.4721 88.3926C77.0718 90.5763 80.208 92.2489 83.3217 93.5674C90.5808 96.6411 97.4108 97.6699 105.29 97.0781C107.823 96.7855 111.361 96.3398 113.883 95.5078C121.782 92.9023 128.344 88.9607 133.711 82.5615C135.558 80.3605 138.666 75.2551 139.594 72.6446C136.024 68.0557 138.205 61.6 142.167 57.9688C140.875 46.6333 137.094 38.853 127.975 31.6416ZM178.032 59.4453C178.03 61.7215 178.897 69.9597 180.199 71.4375C180.448 71.353 180.434 71.4001 180.593 71.2363C181.513 68.1028 181.086 61.3461 178.032 59.4453ZM141.873 59.5225C139.103 62.2265 137.998 67.9998 139.646 71.419L139.961 71.378C140.708 70.1118 142.607 60.6231 141.873 59.5225ZM272.697 50.624C269.049 50.4097 265.237 50.8744 261.598 50.6055C262.051 52.3564 262.555 54.0355 262.706 55.8379C265.499 55.8827 272.632 56.3088 274.771 55.3574C275.704 53.3684 275.35 50.7801 272.697 50.624ZM58.3696 50.5625C56.4487 50.7531 48.4243 50.7271 46.3256 50.6074C44.3961 51.6996 45.0233 53.1572 45.0034 55.1875C47.379 56.2994 54.2914 55.897 57.3208 55.8819C57.3861 54.4736 58.0376 52.0505 58.3696 50.5625ZM169.276 44.7735C166.054 44.2139 159.221 43.693 156.121 44.1729C151.883 44.5375 148.592 44.9962 144.574 46.3936C143.875 46.6363 143.237 46.4436 142.603 46.9278L142.419 47.253C142.791 47.9816 143.496 47.8415 144.197 47.6377C150.536 45.7925 157.06 45.3247 163.633 45.6533C167.594 45.7345 171.583 46.5228 175.41 47.5186C176.022 47.6778 176.562 47.8922 177.201 47.9102L177.429 47.6612C177.18 46.1065 175.08 46.2614 173.793 45.8867C172.326 45.4598 170.764 45.1249 169.276 44.7735Z" fill="#B5C4A8"/>
</svg>
