<svg width="320" height="120" viewBox="0 0 320 120" fill="none" xmlns="http://www.w3.org/2000/svg">
<path d="M172.128 35.8288C176.686 30.1711 194.418 26.9172 201.898 25.9252C223.992 22.9951 247.986 23.3656 269.943 27.3393C272.626 27.9819 276.648 28.3074 278.922 29.8319C280.608 30.9639 279.867 37.9804 279.652 39.8702C279.44 42.8124 275.189 41.2483 274.573 43.3616C273.076 48.5019 274.667 51.435 267.861 52.1409C267.625 60.0598 266.674 66.2809 263.151 73.5279C258.482 83.135 250.851 89.554 240.826 93.0634C228.64 97.329 212.443 97.0643 200.746 91.3892C195.928 89.1744 191.636 85.9563 188.159 81.9497C185.434 78.8204 182.929 74.8011 181.206 71.0358C180.562 69.6297 178.863 67.1346 178.542 66.1937C176.259 59.5031 175.921 52.6256 176.392 45.7411C173.358 44.2336 172.354 42.9781 171.789 39.6237C164.665 37.5923 155.418 38.1017 148.249 39.6138C147.467 43.0171 146.86 44.2495 143.609 45.692C143.677 46.423 143.728 47.1554 143.762 47.8889C144.065 54.3665 143.564 60.9204 141.112 67.103C140.836 67.7994 139.566 69.2059 139.186 70.0804C137.066 74.9603 134.648 78.845 131.079 82.7967C123.302 91.4074 111.372 95.5206 99.9995 95.9545C87.8753 96.4169 74.2636 93.402 65.1861 84.8593C55.4939 75.7378 52.6644 64.9186 52.1255 52.133C46.5851 51.3951 46.5484 50.2301 46.0501 45.0882C45.7239 41.7225 43.1719 42.5705 41.177 41.392C39.408 39.9071 40.3133 35.7994 40.0748 33.9093C39.4331 28.8264 43.0309 28.8546 46.641 28.0364C57.0157 25.6854 67.8914 24.9903 78.3824 24.227C80.5375 23.9719 84.9151 24.1085 87.2185 24.0787C94.6135 23.983 102.905 24.245 110.203 24.9783C119.122 25.8745 142.232 28.9689 147.749 35.7336C149.85 35.5176 152.016 35.0969 154.207 34.8801C160.533 34.254 165.924 34.6294 172.128 35.8288ZM224.368 92.9161C249.179 91.8952 264.919 77.1273 264.725 51.4147C264.693 47.244 263.954 41.119 260.613 38.3199C259.602 37.5266 258.35 36.3585 257.106 35.904C247.192 32.2839 230.351 30.5373 219.991 31.0816L219.727 31.0966C210.469 31.5552 188.923 33.5867 182.936 40.301C179.595 44.0472 179.856 49.7691 179.999 54.4581C181.777 55.6939 183.076 56.9269 184.055 58.9125C185.476 61.7957 186.214 67.0426 184.261 69.814C184.205 69.894 184.146 69.9733 184.088 70.052C192.155 87.0799 206.158 93.0004 224.368 92.9161ZM135.965 69.9565C135.509 69.4307 135.12 68.9755 134.951 68.2768C133.74 63.2666 135.253 57.0024 139.976 54.3799C140.212 49.7486 140.252 43.8543 136.95 40.177C131.221 33.796 109.396 31.4833 100.575 31.0906C97.6963 30.9624 94.7576 30.9511 91.8801 31.1182C83.4546 31.523 64.532 32.8045 58.9503 38.8558C55.5722 42.5181 55.0559 50.2326 55.2988 55.0436C55.815 65.2671 59.6877 75.8343 67.4167 82.8046C76.5356 91.0286 89.371 93.4607 101.302 92.8052C102.14 92.765 102.976 92.6861 103.808 92.5692C119.518 90.3287 128.779 84.2644 135.965 69.9565ZM147.355 38.7334C154.534 37.343 160.419 36.693 167.741 37.7998C169.099 38.0049 171.281 38.325 172.564 38.7453C173.344 42.421 174.797 45.3767 179.114 45.4099C179.966 44.9185 180.438 39.9539 184.132 37.9468C196.295 31.3385 212.404 30.0129 225.962 30.1593C234.56 30.375 257.027 31.9329 262.825 38.1114C264.984 40.4133 265.469 43.5974 265.577 46.6329C265.612 47.5809 265.552 48.6163 265.944 49.499C266.369 50.4572 267.265 50.8576 268.269 50.9085C269.112 50.9512 269.982 50.8137 270.8 50.6178C271.248 50.2142 271.85 49.7025 272.248 49.2728C273.003 46.6425 272.725 42.9028 274.944 41.5239C276.35 40.6506 278.008 41.8367 278.744 39.552C279.14 38.3185 279.248 31.7852 278.749 31.0486C276.681 29.1551 269.419 28.1491 266.875 27.7461C241.742 23.7642 215.195 23.6482 190.25 28.9937C185.572 29.9961 175.197 32.6054 172.703 36.9111C166.235 35.8478 161.077 35.1322 154.43 35.866C151.993 36.1349 149.575 36.6784 147.295 36.942C144.475 32.429 135.255 30.271 130.32 29.1316C115.065 25.6102 99.1025 24.569 83.4765 24.9215C71.2886 25.3862 59.2888 26.3195 47.3399 28.8502C46.0716 29.1188 42.3442 29.7369 41.5393 30.615C40.5738 31.6685 41.0537 36.9929 41.0681 38.5703C41.0727 39.0823 41.5707 40.5614 42.0314 40.6997C44.2031 41.3464 46.1928 41.4043 46.7364 44.1628C47.4777 47.9235 47.507 52.3664 52.8484 50.7118C54.3716 50.24 54.4888 47.8793 54.5542 46.5129C54.8834 39.6456 57.4352 36.1415 64.2327 34.3396C82.6905 29.2122 103.082 28.7935 121.797 32.8471C127.825 34.153 137.865 36.5214 139.84 43.2574C140.055 43.9938 140.161 44.8673 140.641 45.4569C141.936 45.7113 143.788 44.5859 144.856 43.9206C146.817 42.6989 146.879 40.709 147.355 38.7334ZM139.508 55.8668C136.822 58.2719 135.756 60.6494 135.502 64.3036C135.42 65.4802 135.594 67.6484 136.148 68.7103C137.271 67.9449 139.955 57.4656 139.642 55.9935L139.508 55.8668ZM180.124 55.7245C180.384 59.2014 182.015 65.373 183.492 68.5396L183.735 68.6217L184.032 68.4165C185.321 63.9547 183.935 58.5684 180.124 55.7245ZM142.542 46.0821L140.85 46.461C142.111 57.6271 138.307 70.3569 131.371 79.1679C124.504 87.8921 114.817 92.1855 104.004 93.5067C79.7686 96.4681 57.2487 84.254 54.6701 58.4201C54.5711 57.428 54.4048 51.739 54.2395 51.2374C53.7163 51.2432 53.6867 51.2846 53.2143 51.5496C53.0409 51.9573 53.0932 52.247 53.1091 52.6902C53.1612 63.4301 56.9852 75.6339 64.7933 83.24C80.952 98.9806 113.697 99.14 129.518 83.0396C134.217 78.174 137.685 72.2547 139.634 65.7749C140.037 64.439 141.175 60.0932 141.745 59.1873C141.913 59.3974 141.908 59.3795 141.971 59.6403C142.569 58.0087 143.157 47.1263 142.542 46.0821ZM179.152 46.3097C178.519 46.2592 177.939 46.2387 177.321 46.0808C177.184 49.8862 177.136 53.7702 177.642 57.5613C177.833 59.4807 178.823 61.1937 179.32 63.0074C181.225 69.9441 184.841 77.0449 189.765 82.3448C205.168 98.9248 237.732 99.1199 254.21 84.1394C262.231 76.8482 266.551 64.7906 266.886 54.1449C266.909 53.3348 266.918 52.5244 266.911 51.714C266.514 51.3245 266.418 51.3407 265.852 51.2072C265.709 51.39 265.339 58.2647 265.182 59.3363C261.71 83.1311 244.153 94.3631 220.783 93.8463C197.703 93.3358 182.321 78.9463 179.122 55.9823C178.703 52.9653 178.757 49.3729 179.152 46.3097Z" fill="#C7C4FF"/>
</svg>
