<svg width="320" height="120" viewBox="0 0 320 120" fill="none" xmlns="http://www.w3.org/2000/svg">
<path d="M206.087 28.9388C226.211 27.4901 246.421 27.7184 266.509 29.6214C275.152 30.5275 283.571 30.3877 285.97 40.4495C289.056 40.3876 292.174 40.3119 295.261 40.2894C296.497 40.2803 297.933 40.6156 298.783 41.5736C300.026 42.9728 299.72 44.6763 299.59 46.3968C299.043 47.102 298.477 47.5989 297.83 48.2074C295.252 48.5788 289.273 48.567 286.475 48.5365C286.465 57.4186 285.777 79.3797 278.685 85.0081C271.059 91.0605 250.195 91.5237 240.564 91.7972C229.711 92.1391 218.848 91.9066 208.019 91.1009C202.401 90.4865 193.07 89.4484 188.775 85.4339C187.438 84.1825 184.851 80.3058 184.157 78.5726C180.566 69.5859 175.97 55.321 175.865 45.8685C165.655 43.7685 155.124 43.7826 144.921 45.9095C144.983 53.6646 140.24 70.9277 136.95 78.1644C135.878 80.5228 134.383 83.086 132.602 84.9671C126.01 91.9303 103.286 91.7701 93.9648 91.9447C82.8055 92.1536 49.3329 92.1366 41.8886 84.8011C34.8427 77.8577 34.4308 58.1785 34.3212 48.5413C31.6891 48.4613 29.051 48.5305 26.416 48.5208C24.6885 48.5144 22.5898 48.5066 21.5634 46.8158C20.8164 45.5847 20.938 43.9067 21.2128 42.5462C21.4175 41.5338 22.5448 40.9547 23.3564 40.472C27.1244 40.2926 30.9005 40.4994 34.6894 40.3734C37.1269 30.6649 45.1631 30.5868 53.4785 29.7103C62.7882 28.7891 72.1307 28.2365 81.4843 28.054C91.6803 27.9824 132.102 28.1953 139.378 33.0023C142.625 35.1473 143.909 37.8349 144.662 41.5101C147.657 41.2717 150.829 40.5757 153.885 40.3148C162.02 39.6201 168.261 40.3056 176.161 41.5335C176.971 35.2023 181.008 32.0772 187.072 31.0677C193.39 30.0164 199.699 29.3767 206.087 28.9388ZM89.0439 28.7923C87.2628 28.7619 84.7584 28.6945 83.0634 28.8441C72.4832 29.2487 62.3212 29.3489 51.6865 30.7298C42.5678 31.5657 35.8538 33.0376 35.2548 43.9447C34.6486 54.9788 35.7574 65.9255 38.3378 76.7132C41.0763 88.1611 51.56 88.4788 61.1689 89.5628C74.2703 91.1668 87.4835 91.67 100.669 91.0687C107.178 90.7485 127.441 89.8019 131.868 84.4134C138.892 75.865 142.86 56.4252 144.445 45.429C144.55 44.6999 155.106 43.5958 156.035 43.596C162.397 43.2065 170.528 43.6484 176.636 45.2767C176.853 54.617 182.666 78.4 189.343 84.7796C193.667 88.9109 200.821 89.14 206.416 89.8577C223.956 92.2144 241.067 91.4249 258.602 89.6576C275.692 87.9353 282.325 86.3657 284.253 67.2161C285.073 59.0685 289.331 36.9694 279.047 32.6224C275.616 31.1732 266.334 30.392 262.388 30.0247C255.548 29.4493 248.689 29.1092 241.823 29.0052C226.951 28.5291 212.062 29.0403 197.258 30.5345C194.039 30.8708 187.295 31.58 184.376 32.5736C183.055 33.0175 181.828 33.7055 180.761 34.6009C177.866 37.0332 178.041 38.9264 176.573 41.9124C176.252 42.5623 168.499 41.4164 167.312 41.2962C159.361 40.4905 151.898 41.5945 144.018 42.4652C143.054 37.5604 140.685 33.2136 135.279 32.2074C120.114 29.3845 104.43 29.0604 89.0439 28.7923ZM225.806 30.2572C235.326 30.2163 274.907 29.9522 280.804 35.9261C283.582 38.7425 283.417 43.5623 283.419 47.2464C283.427 55.6433 283.543 69.0007 280.892 76.7044C280.111 78.9723 278.931 81.0237 277.223 82.7142C275.835 84.0861 274.339 85.1981 272.516 85.9105C264.694 88.965 244.912 89.6753 236.102 89.6771C235.786 89.7215 235.468 89.7527 235.148 89.7718C232.619 89.8987 229.999 89.7537 227.462 89.7318C218.865 89.6573 206.527 89.393 198.224 87.3441C195.765 86.7377 192.865 85.7439 190.981 84.0296C183.888 77.5742 179.402 56.4964 178.952 47.1624C178.785 43.663 178.655 39.1571 181.206 36.4242C186.512 30.74 217.47 30.6079 225.806 30.2572ZM81.2783 30.2601C91.1889 30.1635 132.859 29.9809 139.308 36.1624C141.455 38.2213 141.818 41.6375 141.851 44.4486C141.958 53.8606 137.293 76.7395 130.369 83.6439C128.651 85.3569 125.825 86.489 123.529 87.1322C117.327 88.8703 105.3 89.663 98.7226 89.6312C88.0576 90.0912 59.0002 89.5469 49.083 86.2337C47.2552 85.6366 45.5719 84.6645 44.1406 83.3802C38.453 78.1969 37.8521 67.059 37.4833 59.7493C37.2274 54.6764 36.7424 44.969 37.7705 40.2493C38.0998 38.7375 38.6804 37.2842 39.7421 36.1351C44.8497 30.6087 73.4462 30.6161 81.2783 30.2601ZM89.0615 31.1224C85.8556 31.1308 82.6496 31.1628 79.4443 31.2181C78.1534 31.2402 75.7522 31.3615 74.5693 31.2786C67.861 31.7575 44.47 31.9723 40.288 36.889C36.6078 41.2164 38.1485 58.9566 38.6914 64.7064C39.1401 69.4586 39.6033 75.6019 42.1542 79.7201C43.0159 81.1111 44.272 82.3117 45.5273 83.3509C46.6114 84.2484 47.713 84.9103 49.0449 85.3675C59.688 89.0214 92.8791 89.8015 104.606 88.599L105.002 88.557C112.302 88.0988 125.696 87.7836 130.435 82.1458C133.559 78.4303 133.792 75.0092 135.905 71.3421L135.796 71.1751C133.495 67.6087 135.469 59.41 138.212 56.639C141.109 53.7123 140.518 51.5706 140.822 47.7005C141.391 40.4563 140.909 35.4412 132.593 34.2933C118.294 31.5083 103.588 31.1286 89.0615 31.1224ZM279.877 36.1683C273.435 30.7247 228.12 30.7115 218.024 31.2777C211.096 31.7077 186.046 32.3206 181.671 37.3089C179.226 40.0959 179.628 45.1724 179.903 48.6361C180.074 50.7986 180.273 52.8822 180.8 54.9954C182.845 56.7988 183.867 58.2663 184.804 60.8949C185.813 63.7182 186.787 68.734 184.727 71.2611C185.846 73.245 186.537 75.4257 187.409 77.5199C189.172 81.752 192.84 85.3692 197.446 86.3031C212.624 89.3799 228.389 89.2168 243.794 88.8226C251.354 88.2224 266.201 87.8177 272.709 84.8939C274.581 84.0534 276.008 82.8161 277.331 81.2611C278.308 80.1112 279.126 78.8222 279.667 77.4085C282.906 68.9414 283.182 51.8213 282.397 42.5941C282.21 40.3904 281.662 37.6774 279.877 36.1683ZM139.462 56.4466C137.695 58.3503 136.756 60.627 136.279 63.1712C136.021 64.5471 135.451 68.7873 136.433 69.8607C136.982 67.9901 139.998 57.5306 139.639 56.5492L139.462 56.4466ZM180.917 56.2523C181.361 59.7454 183.167 66.0847 184.227 69.4456L184.626 69.5872C184.825 65.8736 184.596 58.3704 180.917 56.2523ZM298.116 46.9095C302.273 39.1351 290.151 41.7427 286.123 41.391C286.499 43.7143 286.506 45.2112 286.422 47.5833C289.215 47.4417 295.973 47.705 298.116 46.9095ZM34.4394 41.387C31.0407 41.4486 26.4018 41.2504 23.2373 41.4437C22.0503 42.552 22.0941 42.7193 21.9843 44.3167C21.7853 47.2171 24.2153 47.453 26.4326 47.5072C28.8676 47.5663 31.3514 47.4226 33.7822 47.5374L34.1874 47.3431C34.485 46.3607 34.3677 42.6857 34.4394 41.387Z" fill="#7A8C6E"/>
</svg>
